<?xml version="1.0" encoding="UTF-8"?>
<svg width="22px" height="24px" viewBox="0 0 22 24" version="1.1" xmlns="http://www.w3.org/2000/svg" xmlns:xlink="http://www.w3.org/1999/xlink">
    <title>icon/28/底部tab-我的/常规</title>
    <g id="IT-APP-学习" stroke="none" stroke-width="1" fill="none" fill-rule="evenodd">
        <g id="学习-首页-方案3" transform="translate(-302.000000, -734.000000)">
            <g id="编组-3" transform="translate(0.000000, 728.000000)">
                <g id="Tab-1" transform="translate(289.000000, 0.000000)">
                    <g id="编组" transform="translate(10.000000, 4.000000)">
                        <line x1="12" y1="12" x2="16" y2="12" id="路径-5" stroke="#CED1DA" stroke-width="3.5" stroke-linecap="round" stroke-linejoin="round"></line>
                        <path d="M15.1042914,3.25 C17.225879,3.25 18.3283907,3.5018525 19.3294614,4.03723096 C20.2491445,4.52908286 20.9709171,5.25085553 21.462769,6.17053861 C21.9981475,7.17160929 22.25,8.274121 22.25,10.3957086 L22.25,10.3957086 L22.25,12.6042914 C22.25,14.725879 21.9981475,15.8283907 21.462769,16.8294614 C20.9709171,17.7491445 20.2491445,18.4709171 19.3294614,18.962769 C18.3283907,19.4981475 17.225879,19.75 15.1042914,19.75 L15.1042914,19.75 L12.8957086,19.75 C10.774121,19.75 9.67160929,19.4981475 8.67053861,18.962769 C7.75085553,18.4709171 7.02908286,17.7491445 6.53723096,16.8294614 C6.0018525,15.8283907 5.75,14.725879 5.75,12.6042914 L5.75,12.6042914 L5.75,10.3957086 C5.75,8.274121 6.0018525,7.17160929 6.53723096,6.17053861 C7.02908286,5.25085553 7.75085553,4.52908286 8.67053861,4.03723096 C9.67160929,3.5018525 10.774121,3.25 12.8957086,3.25 L12.8957086,3.25 Z" id="矩形" stroke="#9EA5B6" stroke-width="2.5"></path>
                        <path d="M4.5,23 L23.5,23 C24.3284271,23 25,23.6715729 25,24.5 C25,25.3284271 24.3284271,26 23.5,26 L4.5,26 C3.67157288,26 3,25.3284271 3,24.5 C3,23.6715729 3.67157288,23 4.5,23 Z" id="矩形备份" fill="#9EA5B6"></path>
                        <rect id="矩形" fill="#D8D8D8" opacity="0" x="0" y="0" width="28" height="28"></rect>
                    </g>
                </g>
            </g>
        </g>
    </g>
</svg>