<?xml version="1.0" encoding="UTF-8"?>
<svg width="26px" height="24px" viewBox="0 0 26 24" version="1.1" xmlns="http://www.w3.org/2000/svg" xmlns:xlink="http://www.w3.org/1999/xlink">
    <title>icon/28/底部tab-体验课/选中</title>
    <g id="IT-APP-学习" stroke="none" stroke-width="1" fill="none" fill-rule="evenodd">
        <g id="学习-首页-方案3" transform="translate(-175.000000, -734.000000)">
            <g id="编组-3" transform="translate(0.000000, 728.000000)">
                <g id="Tab-1" transform="translate(164.000000, 0.000000)">
                    <g id="编组" transform="translate(10.000000, 4.000000)">
                        <path d="M19.3897114,3.25 C21.1997411,3.25 21.8725902,3.38700628 22.5465437,3.72851314 C23.1251307,4.02169571 23.5867185,4.45451604 23.9164756,5.01306704 C24.3005854,5.66368209 24.4805464,6.32633628 24.5968604,8.13262491 L24.5968604,8.13262491 L25.4099238,20.7590218 C25.4764681,21.7924154 25.1178471,22.7549501 24.4842417,23.4757725 C23.8581888,24.1880027 22.963668,24.6642487 21.9455534,24.7396941 L21.9455534,24.7396941 L6.33232542,24.75 C5.29679152,24.75 4.35929152,24.330267 3.68067499,23.6516504 C3.01013018,22.9811056 2.59234696,22.0577992 2.5825033,21.0369092 L2.5825033,21.0369092 L3.4031396,8.13262491 C3.51945364,6.32633628 3.6994146,5.66368209 4.08352443,5.01306704 C4.41328153,4.45451604 4.87486929,4.02169571 5.45345631,3.72851314 C6.12740985,3.38700628 6.80025887,3.25 8.61028859,3.25 L8.61028859,3.25 Z" id="矩形备份" stroke="#9EA5B6" stroke-width="2.5"></path>
                        <path d="M9,9 C9,12.3137085 11.4691967,14 14,14 C16.5308033,14 19,12.3137085 19,9" id="路径" stroke="#CED1DA" stroke-width="3.5" stroke-linecap="round" stroke-linejoin="round"></path>
                        <rect id="矩形" fill="#D8D8D8" opacity="0" x="0" y="0" width="28" height="28"></rect>
                    </g>
                </g>
            </g>
        </g>
    </g>
</svg>